<?xml version="1.0" encoding="utf-8"?>
<!-- Generator: Adobe Illustrator 26.0.1, SVG Export Plug-In . SVG Version: 6.00 Build 0)  -->
<svg version="1.1" id="Layer_1" xmlns="http://www.w3.org/2000/svg" xmlns:xlink="http://www.w3.org/1999/xlink" x="0px" y="0px"
	 viewBox="0 0 60 60" style="enable-background:new 0 0 60 60;" xml:space="preserve">
<style type="text/css">
	.st0{fill:url(#Path_429_00000028289368946253865400000008002217315534135987_);}
</style>
<g id="NA_Guideline-06" transform="translate(-20.43 -50.65)">
	
		<linearGradient id="Path_429_00000027562958859392143490000002839920838350762407_" gradientUnits="userSpaceOnUse" x1="-904.9119" y1="479.1459" x2="-904.585" y2="479.1459" gradientTransform="matrix(136.387 0 0 -178.9622 123446.4219 85829.8359)">
		<stop  offset="0.2" style="stop-color:#009BBA"/>
		<stop  offset="0.49" style="stop-color:#243269"/>
		<stop  offset="1" style="stop-color:#DC2027"/>
	</linearGradient>
	<path id="Path_429" style="fill:url(#Path_429_00000027562958859392143490000002839920838350762407_);" d="M59.2,93.7l-2.1-1.4
		l0.1-0.2l2.1,1.3L59.2,93.7z M60.1,92.4L58,91c-0.2,0.3-0.4,0.6-0.6,0.9l2.1,1.3C59.7,92.9,59.9,92.7,60.1,92.4L60.1,92.4z
		 M61.2,90.8l-2.1-1.3l-0.5,0.8l2.1,1.3L61.2,90.8z M60.2,100l-2.5-1.7c-3,4.2-5.8,7.7-7.1,9.4l2.4,1.9
		C54.3,107.8,57.1,104.2,60.2,100L60.2,100z M45.8,101.7c-0.6-0.7-1.1-1.5-1.6-2.2l-2.5,1.8c0.5,0.8,1.1,1.5,1.7,2.3L45.8,101.7z
		 M43.7,98.7l-0.6-0.8l-2.5,1.7l0.6,0.9L43.7,98.7z M60.9,98.9l-2.6-1.7L57.8,98l2.5,1.7C60.5,99.5,60.7,99.2,60.9,98.9L60.9,98.9z
		 M42.9,97.6c-2.5-3.5-4.7-6.9-6.4-9.9l-2.7,1.5c1.8,3.1,4,6.5,6.5,10.1L42.9,97.6z M63,95.8l-2.6-1.7c-0.5,0.7-1,1.5-1.6,2.3
		l2.6,1.7C62,97.3,62.5,96.6,63,95.8L63,95.8z M72.8,74c0-2.5-0.4-5-1.3-7.4l-2.9,1c0.8,2.1,1.1,4.2,1.1,6.4c0,2.5-1.2,6-3.5,10.5
		l2.8,1.4C71.5,80.9,72.8,77,72.8,74L72.8,74z M31.9,77.8c-0.2-0.8-0.4-1.6-0.6-2.5l-3.1,0.4c0.1,1,0.3,2,0.6,2.9L31.9,77.8z
		 M31.3,74.5v-0.9l-3.1-0.1V74c0,0.2,0,0.4,0,0.6L31.3,74.5z M34.8,63.1l-2.5-1.7c-2.5,3.5-3.9,7.6-4.1,11.9l3.1,0.1
		C31.4,69.7,32.6,66.1,34.8,63.1z M71.4,66.3c-0.1-0.3-0.3-0.7-0.4-1l-2.8,1.2c0.1,0.3,0.2,0.6,0.4,0.9L71.4,66.3z M70.5,64.4
		c-0.4-0.9-1-1.8-1.5-2.6l-2.6,1.7c0.5,0.7,0.9,1.5,1.3,2.2L70.5,64.4z M59.7,54.1c-2.9-1.3-6-1.9-9.2-1.9c-1.2,0-2.3,0.1-3.4,0.3
		l0.5,3c1-0.1,2-0.2,3-0.2c2.7,0,5.4,0.6,7.9,1.7L59.7,54.1z M45.5,55.8l-0.8-2.9c-1,0.3-1.9,0.6-2.9,1l1.2,2.8
		C43.8,56.3,44.6,56,45.5,55.8L45.5,55.8z M47.3,55.4l-0.5-3c-0.4,0.1-0.7,0.1-1.1,0.2l0.7,3C46.6,55.5,47,55.5,47.3,55.4L47.3,55.4
		z M51.4,103.9c0,0,1.7-2.1,4-5.1l-2-1.5c-1.2,1.6-2.3,3-3,3.8c-1.2-1.5-3.4-4.3-5.8-7.7l-2,1.4c3.6,5.1,6.8,9,6.9,9l1,1.2
		L51.4,103.9z M55.9,98.3l-2-1.4l-0.3,0.4l2,1.4C55.7,98.6,55.8,98.5,55.9,98.3L55.9,98.3z M58.1,95.3l-2-1.4
		c-0.6,0.9-1.3,1.7-1.9,2.6l2,1.4C56.8,97,57.5,96.2,58.1,95.3L58.1,95.3z M68.5,74c0-3.4-1-6.8-3-9.7l-2.1,1.3
		c1.7,2.5,2.6,5.4,2.6,8.4c0,3.1-2.4,8.4-6.8,15.2l2.1,1.3C66.1,83.2,68.5,77.6,68.5,74L68.5,74z M41.5,88.9
		c-0.6-0.9-1.2-1.9-1.7-2.7l-2.1,1.2c0.5,0.9,1.1,1.8,1.7,2.8L41.5,88.9z M39.6,85.8l-0.3-0.4l-2.2,1.2l0.3,0.5L39.6,85.8z
		 M39.2,85.2c-2.8-4.9-4.3-8.8-4.3-11.2c0-1.5,0.2-2.9,0.6-4.3l-2.4-0.7c-0.5,1.6-0.7,3.3-0.7,5c0,2.9,1.6,7.1,4.7,12.4L39.2,85.2z
		 M65.5,64.2c-0.1-0.2-0.2-0.3-0.3-0.5l-2,1.4c0.1,0.1,0.2,0.3,0.3,0.4L65.5,64.2z M39.9,62.8l-1.7-1.8c-0.9,0.8-1.7,1.7-2.3,2.6
		l2,1.4C38.5,64.2,39.2,63.4,39.9,62.8L39.9,62.8z M64.9,63.3c-0.7-0.9-1.5-1.8-2.4-2.5l-1.7,1.8c0.8,0.7,1.5,1.4,2.1,2.2L64.9,63.3
		z M40.6,62.1l-1.6-1.9c-0.1,0.1-0.3,0.2-0.4,0.4l1.6,1.8C40.4,62.3,40.5,62.2,40.6,62.1L40.6,62.1z M50.5,58.7c2,0,4,0.4,5.8,1.1
		l0.9-2.3c-6.1-2.4-13-1.4-18.1,2.6l1.6,1.9C43.5,59.9,46.9,58.7,50.5,58.7L50.5,58.7z M51.7,96.2c0.7-1,1.4-2,2-2.9
		c2.7-3.8,5.1-7.8,7.2-11.9c2.5-4.9,2.7-7,2.7-7.4v-0.1c0-7.1-5.9-12.9-13.1-12.9s-13.1,5.8-13.1,12.9l0,0v0.1
		c0,0.4,0.2,2.5,2.7,7.4c2.1,4.1,4.5,8.1,7.2,11.9c0.6,0.9,1.3,1.9,2,2.9l1.2,1.7L51.7,96.2z M43.2,66.8c4-3.9,10.5-3.9,14.5,0
		c1.9,1.9,3,4.4,3,7c0,0.2-0.3,2.1-2.4,6.3c-2.1,4-4.4,7.9-7,11.6c-0.3,0.4-0.5,0.8-0.8,1.2c-0.3-0.4-0.6-0.8-0.8-1.2
		c-2.6-3.7-4.9-7.6-7-11.6c-2.1-4.2-2.4-6.1-2.4-6.3C40.3,71.2,41.3,68.7,43.2,66.8z"/>
</g>
</svg>
